<svg xmlns="http://www.w3.org/2000/svg" width="421" height="332" viewBox="0 0 421 332">
  <g fill-rule="evenodd">
    <path d="M301.541151 31.1961494C298.137765 40.2642688 290.885708 49.9585304 279.784899 60.2790698 266.009659 73.3023907 249.07009 85.0232037 228.965686 95.4418605 225.940153 97.027172 223.002694 98.5013008 220.153306 99.8642475 221.050945 107.084833 223.219298 113.238576 226.658394 118.325581 229.257902 121.962852 232.381729 124.753568 236.029897 126.697742 242.186896 126.707721 247.312259 127.821628 251.405995 130.039474 265.989586 129.759239 278.682246 121.110505 289.484344 104.093023 299.722698 88.2789907 304.283351 72.7442623 303.16644 57.4883721L305.679478 57.4883721C307.354845 63.2558428 308.192516 69.2092716 308.192516 75.3488372 308.192516 91.5349647 302.887266 105.255758 292.276608 116.511628 282.460157 126.924997 270.333622 132.52133 255.896687 133.300759 261.025419 138.21602 263.589765 145.875442 263.589765 156.27907 263.589765 176.000099 252.048521 191.25576 228.965686 202.046512 222.204847 205.218186 215.162813 207.802138 207.839551 209.798374 212.85496 210.956052 217.63867 211.534884 222.19077 211.534884 252.347377 211.534884 280.455892 188.465347 306.517157 142.325581 329.041536 102.325381 360.128437 63.06996 399.77879 24.5581395L398.941111 23.4418605C380.512073 33.6744698 363.47943 38.7906977 347.842671 38.7906977 340.024292 38.7906977 328.483047 37.0697847 313.218592 33.627907 309.056185 32.6893544 305.163707 31.8787688 301.541151 31.1961494zM217.033432 101.328339C203.200489 107.69173 191.541301 111.310939 182.055643 112.186047 161.951238 150.51182 135.424991 179.34874 102.476106 198.697674 129.840434 207.255857 150.968357 211.534884 165.860509 211.534884 173.316538 211.534884 181.235277 210.166649 189.61678 207.430162 189.397984 207.311449 189.179998 207.191317 188.962823 207.069767 177.79371 200.744154 172.209237 191.907033 172.209237 180.55814 172.209237 175.906953 173.558818 172.093038 176.25802 169.116279 178.957223 166.13952 182.540593 164.651163 187.008238 164.651163 192.406643 164.651163 196.920759 166.604632 200.550721 170.511628 204.180683 174.418624 205.995637 179.06974 205.995637 184.465116 205.995637 194.883773 200.318089 199.813956 188.962823 199.255814 189.949872 201.557636 192.067637 203.601132 195.316147 205.386321 203.674409 202.127008 212.470943 197.571884 221.705798 191.72093 244.788633 177.20923 256.329877 162.325658 256.329877 147.069767 256.329877 140.72921 254.412433 136.159894 250.577513 133.361791 245.352286 133.161342 240.666187 132.062905 236.51919 130.066467 227.735287 130.321078 219.539923 133.012077 211.932873 138.139535 206.720619 141.674436 199.926177 147.906932 191.549342 156.837209L189.594757 154.604651C202.606728 137.71547 216.538933 128.492309 231.39172 126.934962 229.147654 125.23706 227.104503 123.204476 225.262261 120.837209 220.98033 115.487798 218.237398 108.984877 217.033432 101.328339zM199.764484 211.737624C189.709627 213.835027 179.15293 214.883721 168.094321 214.883721 150.409891 214.883721 127.141253 210.139582 98.287709 200.651163 90.6554813 204.930254 79.9519079 208.558125 66.1766677 211.534884 53.332187 214.511643 42.1632408 216 32.6694942 216 10.8897225 216 0 209.302393 0 195.906977 0 186.046462 8.65593327 181.116279 25.9680595 181.116279 34.9033504 181.116279 46.2119084 182.511614 59.8940727 185.302326 73.5762369 188.093037 84.3263476 191.348819 92.1447272 195.069767 101.26617 186.13949 110.480551 173.209387 119.788145 156.27907 134.680297 129.674286 142.498559 115.720937 143.243167 114.418605 120.718788 114.418605 101.359281 110.604689 85.164066 102.976744 63.94275 93.1162298 53.3322512 78.1396353 53.3322512 58.0465116 53.3322512 40.5580521 60.7782153 27.3488819 75.6703669 18.4186047 87.9563919 11.3488019 103.592917 7.81395349 122.58041 7.81395349 150.317042 7.81395349 172.934158 13.5813377 190.432436 25.1162791L188.477851 28.4651163C169.304206 17.4883172 147.524761 12 123.138863 12 106.385192 12 93.1686059 15.3488037 83.4887074 22.0465116 72.1334418 29.8605042 66.4558942 41.7673619 66.4558942 57.7674419 66.4558942 76.5582335 75.3910511 90.6046047 93.261633 99.9069767 107.223025 107.534922 124.534892 111.255815 145.197752 111.069767 157.483777 87.6277898 176.470985 64.1861637 202.159947 40.744186 231.758098 13.5812595 257.3536 0 278.94722 0 289.797347 0 297.094528 2.79280101 300.838831 8.37845791 301.149123 8.37421465 301.459615 8.37209302 301.770308 8.37209302 310.705598 8.37209302 323.968722 10.1395172 341.560076 13.6744186 359.15143 17.20932 372.414554 18.9767442 381.349845 18.9767442 396.055844 18.9767442 408.43476 15.4418958 418.486962 8.37209302L421 11.7209302C403.874026 22.5116819 386.37601 46.6044642 368.505428 84 347.09796 128.651386 330.344541 157.953419 318.244668 171.906977 293.486466 200.558283 261.189597 214.883721 221.353091 214.883721 213.557253 214.883721 206.361078 213.835029 199.764484 211.737624zM297.541119 30.4755827C289.718954 29.1352676 283.310371 28.4651163 278.315286 28.4651163 263.423134 28.4651163 249.927325 35.3022572 237.827451 48.9767442 225.727578 62.6512312 219.677732 76.9301581 219.677732 91.8139535 219.677732 93.1612258 219.714005 94.4780437 219.78655 95.7644078 222.423148 94.4114928 225.157095 92.95514 227.988393 91.3953488 247.068962 80.8836684 263.403546 69.3023888 276.992634 56.6511628 287.241062 47.0255147 294.090534 38.3003577 297.541119 30.4755827zM216.558768 97.3931202C216.404266 95.5913076 216.327015 93.7315857 216.327015 91.8139535 216.327015 71.7208298 225.541396 52.7907865 243.970433 35.0232558 260.88842 18.7125369 278.51211 9.88860803 296.841951 8.55126288 293.879537 5.08296918 288.938468 3.34883721 282.018711 3.34883721 265.451192 3.34883721 246.463983 17.1161414 225.056516 44.6511628 218.355047 53.58144 204.486939 74.7905302 183.451775 108.27907L184.010228 108.837209C192.099756 107.955211 202.949197 104.140543 216.558768 97.3931202zM88.7940098 197.581395C83.209453 194.418589 72.8781778 191.441874 57.7998743 188.651163 43.8384822 186.046499 33.1349088 184.744186 25.688833 184.744186 10.9828333 184.744186 3.6299438 188.558101 3.6299438 196.186047 3.6299438 206.232608 12.9373989 211.255814 31.5525884 211.255814 39.9294237 211.255814 49.7953261 210.046524 61.1505917 207.627907 74.1812243 204.837195 83.3956049 201.488392 88.7940098 197.581395zM364 172L242.074468 332 207 332 311.666667 198.853147 311.109929 198.853147C284.571971 218.433664 258.219989 234.284322 232.053191 246.405594L228.991135 243.608392C273.344784 224.214355 307.769381 200.34513 332.265957 172L364 172z"/>
  </g>
</svg>
